<?xml version="1.0" encoding="UTF-8" standalone="no"?>
<!-- Created with Inkscape (http://www.inkscape.org/) -->

<svg
   xmlns:dc="http://purl.org/dc/elements/1.1/"
   xmlns:cc="http://creativecommons.org/ns#"
   xmlns:rdf="http://www.w3.org/1999/02/22-rdf-syntax-ns#"
   xmlns:svg="http://www.w3.org/2000/svg"
   xmlns="http://www.w3.org/2000/svg"
   xmlns:sodipodi="http://sodipodi.sourceforge.net/DTD/sodipodi-0.dtd"
   xmlns:inkscape="http://www.inkscape.org/namespaces/inkscape"
   id="svg3071"
   version="1.1"
   inkscape:version="0.48.2 r9819"
   width="1000"
   height="1000"
   sodipodi:docname="tree1.png">
  <metadata
     id="metadata3077">
    <rdf:RDF>
      <cc:Work
         rdf:about="">
        <dc:format>image/svg+xml</dc:format>
        <dc:type
           rdf:resource="http://purl.org/dc/dcmitype/StillImage" />
        <dc:title></dc:title>
      </cc:Work>
    </rdf:RDF>
  </metadata>
  <defs
     id="defs3075" />
  <sodipodi:namedview
     pagecolor="#ffffff"
     bordercolor="#666666"
     borderopacity="1"
     objecttolerance="10"
     gridtolerance="10"
     guidetolerance="10"
     inkscape:pageopacity="0"
     inkscape:pageshadow="2"
     inkscape:window-width="1004"
     inkscape:window-height="643"
     id="namedview3073"
     showgrid="false"
     inkscape:zoom="0.389"
     inkscape:cx="500"
     inkscape:cy="397.17224"
     inkscape:window-x="0"
     inkscape:window-y="0"
     inkscape:window-maximized="0"
     inkscape:current-layer="svg3071" />
  <path
     style="fill:#000000"
     d="m 461.45022,854.17159 c -7.02423,-4.28292 -6.78526,-1.96677 -6.9168,-67.04048 -0.065,-32.175 -0.62545,-65.925 -1.24536,-75 -0.6199,-9.075 -1.13648,-21.45 -1.14795,-27.5 -0.0115,-6.05 -0.89583,-22.54374 -1.96524,-36.65275 -1.92521,-25.39981 -2.98144,-96.75151 -1.57427,-106.34725 0.99529,-6.78706 4.4827,-59.99446 5.18776,-79.14968 l 0.66805,-18.14967 -7.75969,-22.85033 c -6.67657,-19.6608 -11.6353,-31.8438 -28.62912,-70.33832 -2.15666,-4.88528 -3.48627,-6.65436 -5.38243,-7.16147 -2.23398,-0.59746 -2.72536,-0.20375 -4.35328,3.488 -1.00928,2.28881 -2.38329,7.57375 -3.05336,11.74432 -1.13138,7.04187 -1.03234,8.41182 1.38823,19.20212 1.96924,8.7784 2.34742,12.10341 1.54678,13.59943 -1.12919,2.1099 -4.45116,3.61107 -5.94625,2.68706 -0.49625,-0.3067 -1.18059,0.55126 -1.52075,1.90659 -0.98834,3.93784 -3.83515,4.85504 -9.34998,3.01242 -2.60969,-0.87195 -5.26721,-2.27007 -5.9056,-3.10693 -1.00716,-1.32028 -1.25014,-1.2398 -1.83673,0.6084 -1.47345,4.64243 -8.49292,4.76451 -9.95019,0.17305 -0.75467,-2.37775 8.73478,-26.05143 14.89737,-37.16499 4.774,-8.60942 7.77731,-15 7.04937,-15 -1.42022,0 -9.97625,6.85817 -15.19653,12.18092 -5.59819,5.70809 -6.58677,7.38214 -10.22426,17.31367 -5.02878,13.73022 -7.80381,16.22887 -12.35244,11.1222 l -2.12279,-2.38322 -2.68735,1.98685 c -3.07405,2.27274 -6.32951,1.74348 -7.95472,-1.29326 -0.76015,-1.42035 -0.60078,-3.20365 0.59717,-6.68227 0.89872,-2.60969 1.73025,-5.99936 1.84784,-7.5326 0.19649,-2.56186 -0.0121,-2.73809 -2.5746,-2.17527 -2.15018,0.47226 -3.30833,0.0579 -5.05992,-1.81018 -3.23711,-3.45245 -6.35532,-4.8694 -9.16433,-4.16438 -1.71374,0.43012 -3.05125,-0.007 -4.52052,-1.4758 -2.88758,-2.88758 -2.61946,-4.83933 1.16334,-8.46858 l 3.25,-3.11808 -2.22541,-2.3815 c -2.04358,-2.18691 -2.49299,-2.27784 -5.5,-1.11281 -3.72161,1.44189 -5.62066,3.39794 -13.71107,14.12257 -5.68389,7.53456 -5.77687,7.76683 -7.5698,18.91074 -2.28464,14.20017 -5.37725,18.07747 -10.40706,13.04766 -1.88446,-1.88446 -1.92112,-1.88068 -2.42824,0.25 -0.28319,1.18984 -0.8323,4.36095 -1.22023,7.04691 -1.47343,10.20163 -9.28459,11.6652 -11.4324,2.14208 -0.63393,-2.81073 -0.42353,-5.84063 0.74313,-10.70172 0.89508,-3.7295 1.38215,-7.02619 1.08238,-7.32596 -1.23259,-1.2326 -3.64579,0.82446 -4.1963,3.57701 -0.72787,3.63939 -4.41054,5.6507 -7.40855,4.04621 -1.56378,-0.83691 -2.14894,-0.76557 -2.5626,0.31241 -0.29483,0.76833 -2.90961,2.58913 -5.81061,4.04622 -4.24501,2.13215 -5.72139,2.44565 -7.56389,1.60616 -1.25914,-0.57371 -2.28935,-1.48723 -2.28935,-2.03006 0,-0.54283 -1.35,-2.36799 -3,-4.05592 -1.65,-1.68793 -3,-3.74427 -3,-4.56966 0,-1.17383 -0.42131,-1.27523 -1.93426,-0.46552 -2.74787,1.47061 -3.79721,1.30371 -6.06574,-0.96482 -2.61528,-2.61528 -2.52508,-4.56583 0.34381,-7.43472 l 2.34382,-2.34382 -3.25836,-1.5538 c -1.7921,-0.85459 -3.56077,-2.50662 -3.93038,-3.67117 -0.54797,-1.72649 -1.19785,-2.00188 -3.52031,-1.49178 -3.08315,0.67717 -6.97858,-2.11645 -6.97858,-5.00471 0,-1.68708 3.46629,-5.5 5,-5.5 0.55,0 0.1,-0.9 -1,-2 -4.30118,-4.30118 -1.90449,-7.29806 8.33393,-10.42098 6.69758,-2.04288 8.5561,-3.04225 9.49666,-5.10654 1.58359,-3.47562 1.52831,-3.60066 -1.28027,-2.89575 -1.83341,0.46015 -3.11995,-0.0555 -5.11408,-2.04958 -2.28106,-2.28107 -3.21266,-2.57177 -6.47512,-2.02058 -3.07001,0.51867 -4.21411,0.24044 -5.88593,-1.43138 -1.14135,-1.14135 -2.07519,-2.75019 -2.07519,-3.57519 0,-1.98699 3.58135,-5.5 5.60699,-5.5 1.13825,0 1.39684,-0.51045 0.88655,-1.75 -1.51631,-3.68319 -1.54505,-4.81032 -0.17048,-6.68376 1.58626,-2.16194 5.11024,-2.82656 14.67694,-2.76807 5.76374,0.0352 6.05617,-0.0496 2.58169,-0.74916 -6.44141,-1.29688 -8.37736,-5.6009 -4.19497,-9.32625 1.9762,-1.76025 2.2098,-2.51419 1.35815,-4.38337 -0.78472,-1.72226 -0.63932,-2.85153 0.61328,-4.76324 2.02377,-3.08867 2.04311,-3.57615 0.14185,-3.57615 -2.35537,0 -5.5,-3.74368 -5.5,-6.54775 0,-1.40126 1.06246,-3.53876 2.36102,-4.75 1.29856,-1.21124 2.68702,-3.24037 3.08546,-4.50918 0.39844,-1.26881 2.26098,-3.03966 4.13898,-3.93521 1.878,-0.89556 3.41454,-2.35893 3.41454,-3.25194 0,-0.89301 0.63405,-2.49077 1.409,-3.55058 0.96331,-1.31741 1.11381,-2.47846 0.47579,-3.67061 -0.51326,-0.95903 -0.66476,-2.81323 -0.33666,-4.12045 0.58778,-2.34194 -1.54782,-5.66428 -3.641,-5.66428 -1.85578,0 -3.1906,-4.60182 -1.98709,-6.85059 0.92391,-1.72635 0.76304,-2.46633 -0.89712,-4.12649 -2.1812,-2.1812 -2.37228,-2.94892 -1.37855,-5.53856 0.79073,-2.0606 8.49737,-5.48436 12.34492,-5.48436 2.30772,0 2.73025,-0.35646 2.31316,-1.95143 -0.33649,-1.28676 0.42634,-2.81949 2.23964,-4.5 l 2.74996,-2.54857 -4.64603,0 c -6.39436,0 -10.28957,-3.8631 -7.81893,-7.75447 1.77264,-2.79198 7.7173,-6.24553 10.75056,-6.24553 2.34808,0 3.32701,-0.52743 3.7121,-2 0.31279,-1.19612 0.0307,-2 -0.70187,-2 -0.67368,0 -3.54882,-0.69014 -6.3892,-1.53364 -5.47616,-1.62624 -7.74424,-4.17208 -6.68635,-7.50519 1.0284,-3.24023 3.87733,-4.14365 8.99956,-2.85386 2.5106,0.63218 4.80844,0.90569 5.10632,0.60781 0.29788,-0.29787 -0.23319,-1.72407 -1.18016,-3.16932 -3.10289,-4.73561 1.607,-10.19761 6.52418,-7.56602 2.68542,1.4372 2.70757,-0.30998 0.0378,-2.97978 -2.34773,-2.34773 -2.50444,-3.92787 -0.64213,-6.47474 1.03122,-1.41028 2.7951,-1.89707 7.33247,-2.0236 6.52603,-0.18198 10.9469,-2.88706 9.20694,-5.63363 -1.35563,-2.13989 -1.0618,-3.70351 1.10272,-5.86803 2.84379,-2.84379 4.79405,-2.49813 8.58517,1.52163 3.10746,3.29487 3.38736,3.39822 4.34696,1.60518 0.56411,-1.05404 2.49765,-2.43164 4.29676,-3.06133 l 3.27111,-1.14489 -5,-3.06045 c -7.91585,-4.84522 -9.10673,-7.25341 -5.41334,-10.9468 1.46981,-1.46981 2.80657,-1.90597 4.52196,-1.47544 3.23759,0.81258 4.00437,-1.35183 1.91221,-5.39763 -1.85597,-3.58905 -1.27307,-6.56732 1.58467,-8.09673 3.25041,-1.73957 5.42691,-0.2475 11.44277,7.84447 7.35017,9.88676 6.83616,9.38544 8.83612,8.61798 1.29119,-0.49548 1.56538,-1.3582 1.10207,-3.46764 -0.82223,-3.74357 2.58466,-7.38831 6.08497,-6.50978 1.65665,0.41579 3.02119,-0.0212 4.41334,-1.41334 2.5361,-2.53611 4.08289,-2.53645 7.30538,-0.002 2.43294,1.91374 2.78773,1.93623 7.15508,0.45348 2.52737,-0.85807 4.98896,-1.31677 5.47021,-1.01934 1.79544,1.10965 2.08884,-2.91876 0.55001,-7.55175 -1.76769,-5.32204 -0.98092,-8.28022 2.49572,-9.38366 3.20928,-1.01859 5.85676,1.20661 7.7382,6.50394 0.97351,2.74102 2.05816,4.9837 2.41032,4.9837 0.35215,0 0.90032,-1.30019 1.21814,-2.88931 0.55083,-2.75414 5.78319,-7.11069 8.54017,-7.11069 2.39206,0 5.13348,4.04919 5.24697,7.75 l 0.115,3.75 0.69247,-3.53397 c 0.98457,-5.02474 1.47204,-5.53778 6.97059,-7.33626 4.24054,-1.38701 5.37066,-1.42234 8.14764,-0.25471 2.83016,1.18999 3.84791,1.1277 8.32763,-0.50969 6.42,-2.34659 6.27151,-2.35704 9.0457,0.63637 1.865,2.01236 2.92576,2.3803 5.42266,1.88092 1.79947,-0.3599 3.3565,-1.41598 3.70459,-2.51271 0.33025,-1.04054 1.91857,-2.57351 3.52959,-3.4066 1.61102,-0.83309 2.92913,-1.96281 2.92913,-2.51047 0,-1.98288 4.59345,-3.24083 7.04434,-1.92915 1.92777,1.0317 2.49413,0.96034 3.52072,-0.4436 0.67287,-0.9202 1.00439,-2.51057 0.73671,-3.53416 -0.71037,-2.716473 3.30539,-6.411151 6.04068,-5.557695 5.46477,1.70509 6.51194,1.657328 8.55968,-0.390412 2.80107,-2.801063 4.67799,-2.643917 7.78892,0.652132 l 2.59554,2.75 -0.60117,-5.292126 c -0.50261,-4.424491 -0.28018,-5.613116 1.35671,-7.25 2.11624,-2.116243 2.89474,-2.303064 5.47351,-1.3135 2.24622,0.861958 5.48168,8.626833 5.49537,13.188531 0.0168,5.61128 1.13659,11.1671 2.25067,11.1671 0.95803,0 0.59734,-3.83054 -0.81521,-8.65755 -0.42991,-1.469078 0.0363,-2.825245 1.46108,-4.250001 2.68157,-2.681572 4.54188,-2.643025 7.33693,0.152027 1.23447,1.234464 2.80437,2.115907 3.48869,1.958761 2.16077,-0.496201 4.91833,1.59502 6.59846,5.004013 l 1.62283,3.29275 0.0228,-4.75 c 0.0369,-7.694396 4.74743,-11.025348 9.23937,-6.53341 1.44735,1.447359 3.17554,2.116007 4.97985,1.926746 1.92962,-0.202405 3.48274,0.486471 5.14808,2.283405 1.31165,1.415289 2.62923,2.573259 2.92795,2.573259 0.29873,0 2.72213,-3.88503 5.38533,-8.633394 5.1337,-9.153142 7.6874,-11.322593 11.14797,-9.470553 3.54443,1.896918 3.6025,4.7089 0.23104,11.186948 l -3.12367,6.001949 4.10029,-2.091814 c 4.51797,-2.304892 7.40417,-1.949868 9.04302,1.112354 1.37837,2.57552 0.36414,5.57281 -2.5267,7.46696 -2.23739,1.46597 -2.53893,5.42755 -0.41316,5.42755 0.48585,0 1.68601,0.7875 2.66701,1.75 0.981,0.9625 3.31354,2.30456 5.18342,2.98237 3.36974,1.22147 3.45488,1.17948 9.62981,-4.75 3.42651,-3.29031 6.94397,-5.98237 7.81658,-5.98237 1.90114,0 5.58655,3.48152 5.58655,5.27749 0,0.70262 -0.70052,2.27762 -1.5567,3.5 -0.90576,1.29314 -1.10587,2.22251 -0.47857,2.22251 0.59298,0 1.58233,1.10656 2.19856,2.45903 1.75376,3.84908 -0.77128,6.48835 -10.96872,11.46494 -6.60115,3.22152 -9.21923,5.03816 -9.63222,6.68361 -0.31192,1.2428 -1.91605,3.22015 -3.56474,4.39412 -1.64868,1.17397 -2.99761,2.55385 -2.99761,3.06639 0,0.51255 0.92932,0.003 2.06515,-1.13324 1.5835,-1.5835 2.77336,-1.90959 5.10181,-1.39818 2.95568,0.64918 3.01889,0.58597 2.36971,-2.36971 -0.51141,-2.32845 -0.18532,-3.51831 1.39818,-5.10182 2.70637,-2.70637 4.65852,-2.60695 7.42498,0.37811 l 2.26434,2.44326 2.93791,-1.93667 c 1.61586,-1.06516 3.50042,-1.93963 4.18792,-1.94326 2.21368,-0.0117 5.46729,4.05448 4.91973,6.14836 -0.45175,1.72751 -0.15038,1.8899 2.44819,1.31916 2.05863,-0.45215 3.79054,-0.0975 5.67272,1.16153 1.49015,0.99681 3.83436,1.86295 5.20936,1.92475 1.375,0.0618 3.2875,0.45913 4.25,0.88298 1.23769,0.54502 1.75,0.32504 1.75,-0.75142 0,-2.39046 7.22763,-10.69194 9.30887,-10.69194 2.33674,0 5.11263,2.72548 5.23685,5.14177 0.0667,1.29703 0.44419,3.34771 0.83891,4.55708 0.7114,2.17961 0.73473,2.18179 2.66652,0.25 2.94106,-2.94106 4.42288,-2.44038 10.22448,3.45465 4.33271,4.40249 5.64464,5.22062 7.08185,4.41632 0.9702,-0.54295 2.48904,-0.70896 3.37521,-0.3689 1.04223,0.39994 2.59,-0.45335 4.38289,-2.41632 3.15986,-3.45961 5.12821,-3.79081 7.63442,-1.2846 0.9625,0.9625 2.73483,1.60983 3.93851,1.43851 2.84268,-0.4046 6.66151,3.36501 5.99417,5.91692 -0.43936,1.68012 -0.12839,1.60596 2.48427,-0.59246 3.60801,-3.03593 5.20547,-3.14055 7.83305,-0.51297 2.61603,2.61603 2.52275,4.2253 -0.44965,7.7578 -1.59782,1.89889 -2.25787,3.64465 -1.89813,5.0203 0.37687,1.44114 -0.27863,2.93922 -2.06986,4.73045 -1.44177,1.44177 -3.37805,3.77619 -4.30283,5.18759 -1.6642,2.53989 -1.65659,2.55831 0.74321,1.79664 1.33355,-0.42325 4.33219,-2.73228 6.66365,-5.13116 2.33145,-2.39889 4.93079,-4.36162 5.77631,-4.36162 2.62326,0 5.78013,3.94941 5.27384,6.59787 -0.59832,3.1299 0.19853,3.02988 4.76346,-0.59787 4.443,-3.53085 6.74424,-3.75576 9.56515,-0.93485 1.53433,1.53433 1.90435,2.79725 1.43956,4.91343 -0.50621,2.30473 -0.23219,2.97314 1.43591,3.50257 2.55049,0.8095 4.40462,4.09066 3.74244,6.62284 -0.46751,1.78775 -0.32107,1.77444 2.48848,-0.22614 3.8912,-2.77078 10.31562,-4.22268 12.80041,-2.89286 4.48739,2.40158 3.37085,7.40396 -2.45644,11.00542 l -3.50978,2.16917 2.75595,2.75595 c 3.77198,3.77198 6.93232,5.31636 9.32506,4.55694 1.13483,-0.36018 3.00595,0.0135 4.29412,0.85751 1.47493,0.96641 2.78485,1.17815 3.70104,0.59824 2.19109,-1.38687 3.73996,-1.10636 5.9181,1.07178 2.81204,2.81204 2.52,4.41866 -1.64024,9.02355 -3.94038,4.36153 -3.86857,5.98494 0.18307,4.13889 3.45188,-1.57278 4.1355,-1.48411 6.45717,0.83756 2.64398,2.64398 2.52262,4.56829 -0.47727,7.56818 -2.46778,2.46778 -2.4697,2.48485 -0.5,4.45455 1.0875,1.0875 1.97727,2.48478 1.97727,3.10508 0,0.75523 1.31804,0.91704 3.98981,0.48981 3.21187,-0.5136 4.38176,-0.24605 6,1.37219 1.10561,1.10561 2.01019,2.42987 2.01019,2.9428 0,0.51294 0.92743,1.22697 2.06096,1.58674 2.91636,0.92562 4.44552,4.66577 3.00674,7.35416 -1.01018,1.88754 -0.87467,2.12649 1.20599,2.12649 3.60752,0 5.74704,2.14609 6.79664,6.81748 1.06984,4.76152 0.0853,7.68097 -2.9111,8.63198 -1.01359,0.3217 -2.92657,1.76325 -4.25106,3.20344 l -2.40817,2.61853 2.28777,-1.19111 c 4.604,-2.39705 9.7179,2.23778 7.35029,6.6617 -1.32662,2.47882 -0.60232,3.25798 3.02861,3.25798 1.61263,0 3.58729,0.87852 4.58333,2.03911 1.616,1.88297 3.38122,3.61774 8.35498,8.21089 2.5182,2.32549 2.38959,4.00878 -0.5755,7.53259 l -2.47051,2.93604 5.99032,-1.3839 c 6.56632,-1.51696 9.34524,-0.81775 10.43838,2.62644 1.34177,4.22753 -1.08264,6.06927 -10.98767,8.34693 -1.86037,0.42779 -1.8487,0.468 0.16709,0.5759 3.49631,0.18715 10.98888,3.77709 11.68854,5.60036 1.0695,2.78709 0.7418,4.41821 -1.29732,6.45733 -1.92226,1.92226 -1.90717,1.95309 1.50768,3.08009 3.88086,1.2808 5.85085,4.0895 4.92168,7.01705 -1.25354,3.94957 -3.94727,4.24703 -13.1209,1.4489 -4.71511,-1.4382 -8.78904,-2.39879 -9.05318,-2.13465 -0.26414,0.26414 0.45724,1.41775 1.60308,2.56359 2.53769,2.53769 2.53503,2.37577 0.14647,8.91059 -1.91581,5.24144 -1.91581,5.32007 0,7.23588 1.06527,1.06527 1.93686,2.83686 1.93686,3.93686 0,1.1 0.45965,2 1.02144,2 0.56179,0 1.52562,1.10657 2.14185,2.45904 0.89419,1.96253 0.79118,2.9615 -0.51016,4.9476 -0.89682,1.36871 -1.36117,3.19062 -1.0319,4.04868 0.32927,0.85807 -0.12581,2.66581 -1.01128,4.01722 -0.88547,1.3514 -1.60995,3.14793 -1.60995,3.99228 0,0.84435 -0.94962,2.4848 -2.11027,3.64545 -1.75551,1.75551 -1.92723,2.51201 -1.02144,4.5 0.59886,1.31435 1.50572,2.38973 2.01525,2.38973 0.50953,0 2.09418,1.99263 3.52144,4.42807 2.87136,4.8996 3.39209,10.66553 1.13257,12.54077 -1.26809,1.05242 -1.18787,1.58512 0.60363,4.00825 2.49118,3.3695 1.79807,6.63784 -1.75056,8.2547 -2.14673,0.97812 -3.22032,0.57053 -9.04342,-3.4333 -4.40895,-3.0315 -7.27881,-4.36763 -8.62502,-4.01559 -1.87392,0.49004 -1.80067,0.71225 1.02929,3.12235 3.78578,3.22409 5.33904,6.21152 5.1022,9.81318 -0.10061,1.52986 0.15232,4.24591 0.56206,6.03566 0.62539,2.73174 0.34676,3.6088 -1.73582,5.4638 l -2.4808,2.20971 4.53536,5.0362 c 6.33566,7.0353 7.5408,9.09354 6.76172,11.54819 -0.36831,1.16046 -1.766,2.60945 -3.10597,3.21999 -2.01175,0.91661 -2.92051,0.75207 -5.21482,-0.94418 l -2.77849,-2.05423 -2.13565,2.39766 c -1.17461,1.31871 -2.41939,3.29163 -2.76618,4.38427 -0.34679,1.09264 -1.39314,2.39476 -2.32523,2.8936 -1.81887,0.97343 -9.71841,0.87567 -10.72682,-0.13274 -0.74504,-0.74504 -3.85988,2.2655 -5.48418,5.30053 -1.07749,2.01331 -0.74714,2.63721 3.42431,6.46726 2.53926,2.33145 4.61684,5.00172 4.61684,5.93395 0,0.93222 1.4238,3.67756 3.16401,6.10075 2.72127,3.7893 3.00966,4.74457 2.06096,6.82674 -1.30535,2.86492 -4.47965,4.11089 -6.95044,2.72817 -1.41334,-0.79094 -2.41414,-0.28043 -5.01349,2.5574 -2.59457,2.83261 -3.70145,3.39851 -5.50434,2.81414 -1.24119,-0.4023 -3.37538,-0.72156 -4.74266,-0.70947 -1.36727,0.0121 -3.33408,-0.43193 -4.37067,-0.98669 -1.30826,-0.70016 -1.68457,-0.68483 -1.23034,0.0501 0.91299,1.47724 -2.40702,11.20119 -4.03808,11.82708 -0.99879,0.38327 -1.07522,1.00518 -0.30124,2.45137 1.49628,2.79582 0.30185,5.46704 -3.49337,7.81262 -4.11818,2.54517 -5.07565,2.55434 -7.55766,0.0723 -2.42413,-2.42413 -5.46045,-1.70919 -4.037,0.95056 1.90978,3.56847 3.0762,11.04262 2.02875,12.99979 -2.35271,4.39609 -7.82252,3.3187 -10.01421,-1.9725 -1.18252,-2.85484 -3.8373,-3.72766 -3.2289,-1.06157 0.57138,2.50384 -1.92915,9.07514 -3.84306,10.09943 -2.51903,1.34815 -5.61727,0.41122 -6.96451,-2.10611 -1.25557,-2.34607 -3.23866,-2.45348 -6.44997,-0.34935 -3.00783,1.9708 -6.25898,1.0704 -7.72097,-2.13831 -1.65864,-3.64032 -3.06698,-1.75859 -2.33534,3.12033 0.5358,3.573 0.29072,4.68686 -1.40419,6.38177 -1.1293,1.12937 -2.72828,2.05335 -3.55328,2.05335 -2.50594,0 -5.5,-3.81062 -5.5,-7 0,-3 0,-3 -2,-1 -1.1,1.1 -2.675,2 -3.5,2 -1.62531,0 -5.5,-3.44413 -5.5,-4.88884 0,-0.48887 1.78565,-6.06742 3.96811,-12.3968 l 3.96811,-11.50795 -1.48144,-8.8532 c -0.81479,-4.86927 -2.29183,-12.45321 -3.28232,-16.85321 -1.80081,-7.99966 -1.80102,-8 -5.06728,-8 -2.01159,0 -3.78066,-0.70329 -4.60506,-1.83073 -1.28831,-1.76187 -1.41693,-1.75246 -3.41939,0.25 -1.1444,1.1444 -2.48195,2.08073 -2.97232,2.08073 -0.49038,0 -1.17069,1.11201 -1.51181,2.47114 -1.15404,4.59807 -7.37839,5.7215 -9.48054,1.71114 -1.14146,-2.17762 -4.79932,-23.64585 -5.56856,-32.68228 -1.3554,-15.92223 -2.85703,-26.12788 -4.14829,-28.19345 -0.75416,-1.20639 -6.31769,-5.77302 -12.3634,-10.14805 l -10.99219,-7.9546 -12.51726,-0.72197 c -8.34173,-0.48113 -16.43836,-0.28594 -24.27181,0.58513 l -11.75455,1.3071 -12.17017,12.32408 c -7.93383,8.03416 -13.37024,14.49577 -15.6177,18.56292 -2.84476,5.14805 -19.67488,37.6616 -30.14641,58.23884 -1.39944,2.75 -7.51477,17.04604 -13.58962,31.76899 l -11.04518,26.76899 0.34743,23.73101 c 0.32411,22.1379 4.20227,78.75798 6.63027,96.80007 0.58701,4.36202 1.76642,21.88094 2.6209,38.93094 0.85449,17.05 2.01462,33.475 2.57807,36.5 0.63044,3.38463 0.90291,21.6537 0.70843,47.5 -0.28729,38.18145 -0.47954,42.2995 -2.11457,45.29422 -2.55235,4.67489 -7.18021,7.1983 -13.20145,7.1983 -3.19901,0 -6.15315,-0.70312 -8.20145,-1.95204 z m 15.39075,-2.57255 c 5.25028,-3.44012 5.38235,-4.82366 4.98621,-52.23478 -0.36232,-43.36207 -3.47564,-109.64008 -5.67128,-120.73315 -1.83433,-9.26761 -6.90269,-87.04189 -6.96618,-106.89659 l -0.038,-11.8966 10.58162,-25.6034 c 11.41914,-27.62988 16.05961,-37.47747 33.97724,-72.10341 12.97043,-25.06545 12.95158,-25.03666 24.36591,-37.20137 13.39915,-14.28002 13.92805,-14.58852 28.17191,-16.43215 10.16974,-1.31631 14.52086,-1.39965 25.64301,-0.49113 l 13.39503,1.09419 10.42418,7.59675 c 5.7333,4.17821 11.27119,8.67353 12.30641,9.98961 2.0706,2.63234 3.71995,11.85884 5.08475,28.4441 0.95574,11.61442 4.72643,33.00197 6.06178,34.38278 1.44248,1.49158 3.98816,-0.18856 3.98816,-2.63216 0,-1.65074 0.85816,-2.63607 3,-3.44452 2.1095,-0.79625 3.02258,-1.82603 3.07608,-3.46924 0.10648,-3.2709 2.20035,-8.29504 3.5633,-8.54999 0.67714,-0.12666 1.41945,2.02842 1.8297,5.31197 0.74065,5.92791 2.85165,8.0506 5.03577,5.06364 1.06757,-1.45999 3.49515,-2.34185 3.49515,-1.26968 0,0.21603 1.36493,6.40353 3.03317,13.75 4.83867,21.30811 4.89721,25.34743 0.54779,37.79943 -2.00607,5.74322 -3.42158,11.03072 -3.14557,11.75 0.90208,2.35077 3.71331,1.37407 4.87071,-1.69223 1.81423,-4.80643 4.44801,-3.9213 5.20728,1.75 0.89282,6.66889 1.24808,7.44367 3.2336,7.05206 1.3983,-0.27578 1.75698,-1.39751 1.7726,-5.54348 0.0108,-2.85875 0.57326,-5.75142 1.25,-6.42816 0.67673,-0.67673 1.23042,-2.27954 1.23042,-3.5618 0,-2.21355 2.43312,-4.16884 3.6604,-2.94156 0.31578,0.31578 0.8092,2.65961 1.0965,5.20851 0.58045,5.14977 2.36043,6.57321 5.10909,4.08571 2.87112,-2.59833 7.59539,-2.09884 8.9845,0.94992 1.87896,4.12387 4.46373,2.7438 5.76649,-3.07887 1.76884,-7.90579 2.49862,-9.49233 4.36633,-9.49233 1.1599,0 2.46164,1.71229 3.86027,5.07777 1.57555,3.7912 2.55948,4.98576 3.88332,4.71463 1.40139,-0.28702 1.70702,-1.17873 1.45789,-4.25354 -0.17337,-2.13971 -0.96087,-5.13895 -1.75,-6.66496 -1.8326,-3.54386 -1.83014,-5.8739 0.006,-5.8739 2.26485,0 2.91232,-1.97134 1.5088,-4.59385 -0.70737,-1.32172 -1.00486,-2.68441 -0.66108,-3.02818 1.38967,-1.38968 3.87181,0.83067 5.70219,5.10079 2.12729,4.96276 2.88922,5.30113 6.54429,2.90623 2.96784,-1.9446 3.10924,-3.49182 0.53226,-5.82396 -2.36218,-2.13774 -1.75736,-4.2378 1.19123,-4.13615 1.4348,0.0495 2.29255,-0.60789 2.51167,-1.92488 0.18302,-1.1 0.78463,-2.91726 1.33692,-4.03836 0.67942,-1.37915 0.66275,-2.93637 -0.0516,-4.8151 -1.52867,-4.02136 -1.33908,-4.64654 1.40935,-4.64654 1.4759,0 2.9131,0.83764 3.58216,2.08779 0.83515,1.56049 1.72495,1.93528 3.5231,1.48398 1.32317,-0.3321 3.29251,-0.05 4.37633,0.62684 1.73916,1.08612 2.37167,0.76665 5.38601,-2.72043 3.22388,-3.72948 3.55738,-3.87512 5.94616,-2.59668 2.6291,1.40705 4.751,0.86736 4.68078,-1.19052 -0.0223,-0.65504 -1.37235,-2.74898 -3,-4.65321 -1.62765,-1.90422 -2.95936,-4.43765 -2.95936,-5.62985 0,-1.45742 -1.80203,-3.52817 -5.5,-6.32017 -5.79557,-4.3757 -6.80913,-6.51214 -3.5,-7.3775 1.14921,-0.30052 2,-1.36401 2,-2.5 0,-1.13598 0.85079,-2.19947 2,-2.5 1.1,-0.28766 2,-1.24014 2,-2.11663 0,-1.80247 3.0481,-2.14552 4.66822,-0.5254 0.58752,0.58752 2.81502,0.92502 4.95,0.75 3.14752,-0.25803 3.94228,-0.74423 4.20162,-2.57041 0.17591,-1.23871 1.23122,-2.73995 2.34514,-3.3361 1.65645,-0.88651 1.90866,-1.70566 1.38485,-4.49781 -0.88334,-4.7086 1.71852,-4.59351 5.91549,0.26166 2.20314,2.54866 3.69196,3.47806 4.85598,3.03139 2.81998,-1.08213 1.91465,-2.87697 -5.85022,-11.59816 -4.10909,-4.61517 -7.47108,-9.00267 -7.47108,-9.75 0,-1.65037 2.17664,-1.78215 3.73278,-0.22601 0.62303,0.62303 1.84517,0.85942 2.71587,0.5253 1.59372,-0.61157 1.59193,-1.54142 -0.0237,-12.28785 -0.33667,-2.23943 -1.60194,-3.91385 -4.44776,-5.886 -5.63314,-3.90377 -5.07842,-6.52204 1.65134,-7.79423 2.62873,-0.49694 4.10783,0.13626 9.25781,3.96327 5.91675,4.39681 9.11361,5.10083 9.11361,2.00702 0,-0.77137 -1.57193,-2.47299 -3.49317,-3.78139 -4.20639,-2.86462 -4.47107,-4.63511 -0.75683,-5.06248 2.38872,-0.27485 2.79084,-0.81013 3.06084,-4.07446 0.22247,-2.68953 -0.13294,-3.92833 -1.25,-4.35699 -0.85841,-0.32942 -1.56079,-1.46194 -1.56079,-2.51671 0,-1.12548 -1.03282,-2.31044 -2.5,-2.86826 -1.49645,-0.56895 -2.5,-1.73958 -2.5,-2.91623 0,-1.08116 -0.45,-2.24385 -1,-2.58377 -1.91899,-1.186 -1.07388,-4.35041 1.25,-4.68045 1.66622,-0.23664 2.33737,-1.09792 2.58676,-3.31955 0.18522,-1.65 0.97272,-3.35986 1.75,-3.79969 2.02882,-1.14802 1.74089,-3.45459 -0.58676,-4.70031 -2.77054,-1.48275 -2.50179,-3 0.53138,-3 3.39929,0 4.37347,-2.7937 1.70099,-4.87796 -1.1439,-0.89212 -2.22664,-2.74704 -2.40609,-4.12204 -0.22244,-1.70438 -1.04234,-2.6017 -2.57628,-2.81955 -2.60219,-0.36957 -2.86802,-1.98109 -0.7818,-4.73932 0.8075,-1.06762 1.4825,-2.86363 1.5,-3.99113 0.0175,-1.1275 0.54155,-2.55975 1.16458,-3.18278 1.84548,-1.84548 0.27362,-3.9684 -3.45639,-4.66815 -3.10235,-0.58201 -4.67639,-2.12365 -4.67639,-4.58016 0,-1.99786 9.7827,-1.57597 17.84197,0.76946 5.7794,1.68193 8.66169,2.10797 9.38278,1.38688 2.02735,-2.02735 -0.12846,-3.89966 -6.63603,-5.76335 -4.80424,-1.37587 -6.58872,-2.3487 -6.58872,-3.59191 0,-1.29097 1.03202,-1.77966 4.25,-2.01249 3.53575,-0.25582 4.3038,-0.68638 4.57014,-2.56197 0.21155,-1.48981 -0.29721,-2.4473 -1.5,-2.823 -1.00108,-0.31269 -2.52812,-0.93983 -3.39344,-1.39365 -0.86531,-0.45382 -4.95281,-1.14181 -9.08333,-1.52887 -5.49295,-0.51473 -7.51004,-1.08539 -7.51004,-2.12466 0,-1.50958 0.14372,-1.55805 11.5277,-3.88799 8.3999,-1.71919 9.13897,-2.04896 9.13897,-4.07776 0,-2.36346 -2.12651,-2.56584 -9.86214,-0.9386 -8.87207,1.8663 -8.13786,1.89191 -8.13786,-0.28391 0,-0.9971 1.35,-3.10629 3,-4.68709 1.65,-1.5808 3,-3.41324 3,-4.07208 0,-1.43342 -4.32709,-4.42792 -6.39839,-4.42792 -0.85891,0 -1.60015,-1.14184 -1.78519,-2.75 -0.29118,-2.53061 -0.7059,-2.77475 -5.19858,-3.06019 l -4.88216,-0.31019 0.59065,-4.98712 c 0.46539,-3.92956 0.26711,-5.11128 -0.93506,-5.5726 -0.83914,-0.322 -2.03546,-0.0757 -2.65849,0.54732 -2.37161,2.37161 -5.73278,0.72254 -5.73278,-2.81264 0,-1.31227 5.35669,-6.23507 7.79663,-7.16511 2.02433,-0.77163 2.21625,-1.32088 1.61866,-4.63245 -0.92363,-5.1184 -0.70553,-4.93789 -6.90207,-5.7121 -6.00469,-0.75024 -7.18653,-2.46148 -3.01322,-4.36297 3.36679,-1.53401 3.15752,-4.05677 -0.44055,-5.31107 -1.83909,-0.64111 -3.05647,-1.839 -3.25,-3.19798 -0.28215,-1.98122 -0.8104,-2.14644 -5.98821,-1.87293 -5.56003,0.2937 -5.68547,0.24144 -6,-2.5 -0.29476,-2.5692 -0.6358,-2.78119 -4.13788,-2.57215 -3.42212,0.20427 -3.78392,-9.2e-4 -3.5,-1.98497 0.19998,-1.39756 1.88243,-3.07488 4.56664,-4.55275 4.277,-2.35481 5.46339,-4.78725 2.82814,-5.79849 -0.78202,-0.30009 -2.29376,-0.079 -3.35941,0.49133 -1.06566,0.57032 -3.57582,0.77109 -5.57814,0.44616 -4.99932,-0.81128 -4.73637,-3.19026 0.85941,-7.77559 2.475,-2.02807 4.5,-4.34641 4.5,-5.15184 0,-2.23907 -2.85824,-2.83994 -4.86599,-1.02295 -2.2191,2.00826 -4.13401,2.09177 -4.13401,0.1803 0,-2.28955 -1.98103,-2.90713 -4.68437,-1.46035 -2.17838,1.16584 -2.61513,1.11753 -3.45434,-0.38205 -0.52837,-0.94414 -2.03201,-1.71662 -3.34143,-1.71662 -1.70759,0 -2.47111,-0.6362 -2.70031,-2.25 -0.20296,-1.42907 -1.12323,-2.36433 -2.52227,-2.56336 -1.85008,-0.26318 -4.23404,-3.75715 -3.13859,-4.59995 0.18772,-0.14442 2.50427,-1.72464 5.14789,-3.5116 3.10858,-2.10126 4.68577,-3.83651 4.46462,-4.91206 -0.58844,-2.86185 -7.36,-1.56862 -12.55447,2.39765 -6.48278,4.94998 -10.79785,4.23413 -6.74853,-1.11955 3.12621,-4.13323 1.13577,-7.63751 -3.06205,-5.39091 -3.42333,1.83212 -3.94382,0.64618 -1.97686,-4.50423 2.732,-7.15365 -0.0956,-8.8022 -6.08207,-3.54599 -2.20063,1.93218 -4.50354,3 -6.46991,3 -3.00764,0 -3.04305,-0.0595 -2.37768,-3.9978 1.04063,-6.15945 -1.53823,-6.39581 -6.83508,-0.62644 -3.89588,4.24341 -4.63338,4.62424 -8.95504,4.62424 -2.63119,0 -4.70951,-0.46472 -4.70951,-1.05305 0,-1.64571 4.56576,-7.95449 6.98118,-9.64632 1.64903,-1.15503 2.0248,-2.14066 1.54498,-4.05242 -0.48092,-1.91612 0.0141,-3.20268 2.0498,-5.3275 2.69928,-2.81743 2.78228,-5.92071 0.15837,-5.92071 -0.73064,0 -3.08609,1.8 -5.23433,4 -4.89728,5.01527 -6.97937,5.27202 -6.0822,0.75 1.42484,-7.18165 1.39351,-7.26776 -2.56219,-7.04214 -2.87757,0.16413 -3.75211,-0.20408 -4.15638,-1.75 -0.75493,-2.88687 -3.42947,-2.38021 -5.16644,0.97873 -1.96121,3.79257 -3.25776,4.53656 -5.1578,2.95966 -1.22691,-1.01824 -1.93754,-1.02603 -3.51874,-0.0386 -2.51484,1.57054 -5.48839,0.65702 -6.15466,-1.89082 -0.28289,-1.08173 -1.13446,-1.96683 -1.89236,-1.96683 -0.75791,0 -2.17548,-1.35 -3.15016,-3 -2.33124,-3.94648 -3.81648,-3.78426 -6.74187,0.73637 -1.32984,2.05501 -3.27002,3.90048 -4.31151,4.10105 -1.66793,0.32121 -1.82551,-0.0943 -1.32211,-3.48637 0.8343,-5.62177 -0.45041,-11.7595 -2.54588,-12.16305 -1.09528,-0.21093 -2.07236,0.56202 -2.65818,2.10285 -0.50947,1.34001 -1.5718,2.68408 -2.36073,2.98682 -0.78892,0.30274 -1.71215,1.93911 -2.0516,3.63638 -0.48936,2.44681 -1.12793,3.08595 -3.08317,3.08595 -1.35629,0 -2.76038,-0.47635 -3.1202,-1.05855 -0.3815,-0.61727 -1.90134,-0.78463 -3.64586,-0.40147 -2.36361,0.51914 -3.3002,0.21654 -4.4615,-1.44145 -1.70544,-2.43486 -5.1579,-2.77955 -5.99483,-0.59853 -1.08167,2.81878 -3.26111,1.55955 -3.89423,-2.25 -0.34277,-2.0625 -0.79904,-4.3125 -1.01393,-5 -0.54405,-1.74063 -3.39481,-1.56645 -4.09184,0.25 -0.37104,0.96691 -1.9177,1.5 -4.35199,1.5 -2.98783,0 -3.89034,-0.43578 -4.32213,-2.08698 -0.35533,-1.35877 -1.18111,-1.96057 -2.36663,-1.7247 -1.43591,0.28568 -1.82088,1.3083 -1.82088,4.83698 l 0,4.4747 -4.5,0 -4.5,0 0.29328,3.75 c 0.16131,2.0625 -0.0637,3.73569 -0.5,3.7182 -2.20644,-0.0885 -6.29328,-5.55118 -6.29328,-8.412 0,-0.80901 1.57499,-2.72762 3.49997,-4.26357 1.92498,-1.53595 3.49998,-3.54517 3.5,-4.46493 2e-5,-1.09984 3.61382,-3.6107 10.55699,-7.33498 7.69409,-4.12706 10.47094,-6.11421 10.23978,-7.3277 -0.17444,-0.91577 -1.32507,-1.80882 -2.55696,-1.98458 -2.77582,-0.39602 -2.87322,-2.29722 -0.23978,-4.68044 2.40498,-2.17648 2.5789,-4.34063 0.41556,-5.17078 -1.07665,-0.41315 -3.72868,1.51981 -8.27509,6.03139 -6.89656,6.84371 -8.51266,7.71781 -9.5021,5.13939 -0.91104,-2.37414 -3.43858,-1.75053 -5.0664,1.25 -0.82054,1.5125 -1.50991,2.16094 -1.53193,1.44098 -0.022,-0.71996 -0.49004,-1.0309 -1.04004,-0.69098 -0.55,0.33991 -1,0.16803 -1,-0.38197 0,-1.59831 1.7763,-2.25222 2.37491,-0.87427 0.30014,0.69093 0.27636,-0.0938 -0.0529,-1.74376 -0.83228,-4.1713 -1.11577,-4.5 -3.88108,-4.5 -1.86067,0 -2.44423,-0.53491 -2.45463,-2.25 -0.008,-1.2375 -0.27608,-3.22842 -0.59683,-4.42426 -0.45864,-1.70998 0.0781,-2.5162 2.51366,-3.77568 3.21607,-1.66309 4.0893,-4.23198 1.74443,-5.1318 -0.74382,-0.28543 -3.51084,0.6287 -6.14894,2.03139 -5.09612,2.70965 -7.49862,3.19837 -7.49862,1.52538 0,-0.56373 1.60477,-4.211612 3.56616,-8.106405 3.52399,-6.997715 3.83794,-9.86863 1.07919,-9.86863 -1.32595,0 -7.80597,10.095975 -10.42993,16.250005 -0.73598,1.72613 -1.93684,2.75 -3.22537,2.75 -1.12905,0 -2.31184,0.675 -2.62842,1.5 -0.31659,0.825 -1.22194,1.5 -2.0119,1.5 -1.04519,0 -1.35643,-1.02113 -1.14301,-3.75 0.25681,-3.28373 -8.2e-4,-3.79162 -2.07206,-4.08467 -1.30093,-0.18407 -2.85343,0.15343 -3.45,0.75 -1.88946,1.88946 -3.54103,1.17844 -3.86824,-1.665335 -0.22758,-1.977859 -0.87798,-2.75 -2.31642,-2.75 -1.75318,0 -2.10727,0.956416 -2.86925,7.750005 -0.53451,4.7656 -1.32073,7.75 -2.04168,7.75 -0.64484,0 -2.38629,-2.475 -3.86989,-5.5 -2.36891,-4.83013 -3.05987,-5.5 -5.67313,-5.5 -1.95223,0 -3.34382,-0.68788 -4.04605,-2.000005 -1.13431,-2.119481 -3.47779,-2.653964 -4.48574,-1.023073 -0.33208,0.53731 -0.10002,2.847738 0.51569,5.134288 1.60834,5.97295 0.64184,8.88879 -2.94635,8.88879 -2.75191,0 -2.9267,-0.27802 -3.98095,-6.33192 -0.60646,-3.48255 -1.10265,-7.538656 -1.10265,-9.013567 0,-1.474911 -0.41715,-3.46305 -0.927,-4.418087 -0.50985,-0.955037 -1.18349,-2.557189 -1.49698,-3.560338 -0.33543,-1.073375 -1.29133,-1.67943 -2.323,-1.472806 -1.52078,0.304587 -1.70544,1.327201 -1.39384,7.719088 0.35696,7.32255 0.34462,7.36409 -2,6.73646 -1.29755,-0.34734 -2.89038,-0.63767 -3.53963,-0.64518 -0.64925,-0.008 -1.32425,-1.02615 -1.5,-2.263655 -0.4412,-3.106558 -4.20165,-3.081054 -4.64323,0.03149 -0.29059,2.048305 -0.69942,2.213845 -4,1.619615 -2.02197,-0.36404 -4.23309,-1.103555 -4.91359,-1.643372 -2.30501,-1.8285 -3.97581,0.02171 -4.65705,5.157112 -0.6268,4.7251 -0.87038,5.08516 -3.44012,5.08516 -1.52106,0 -3.27531,-0.50976 -3.89834,-1.13279 -1.59145,-1.59145 -4.26722,-0.31541 -4.26722,2.03498 0,1.40022 -0.79037,2.0559 -2.75,2.28138 -1.96832,0.22648 -2.84077,0.95551 -3.06933,2.56478 -0.21341,1.50255 -1.20854,2.44055 -3,2.82779 -1.47437,0.3187 -3.7578,1.10507 -5.0743,1.7475 -2.02125,0.98634 -2.56575,0.88297 -3.5,-0.66442 -2.95467,-4.89379 -3.39574,-5.21341 -5.45821,-3.95524 -3.19177,1.94707 -11.88812,2.75672 -13.67561,1.27323 -1.16122,-0.96372 -2.08655,-1.00793 -3.75664,-0.1795 -1.21875,0.60455 -3.11256,1.2404 -4.20846,1.413 -1.56298,0.24615 -2.1723,1.44301 -2.82628,5.55155 -0.59342,3.72812 -1.28434,5.23774 -2.3972,5.23774 -2.40532,0 -4.21702,-3.10235 -4.25217,-7.28139 -0.0379,-4.5077 -1.81885,-5.55947 -5.41922,-3.20042 -1.92014,1.25812 -2.82755,3.08605 -3.6781,7.40932 -0.67471,3.42949 -1.6473,5.73915 -2.41673,5.73915 -0.70969,0 -2.52494,-3.55436 -4.04434,-7.91907 -2.70981,-7.78434 -4.58704,-10.03397 -6.65082,-7.97018 -0.72397,0.72397 -0.51552,2.631 0.68152,6.23495 1.4504,4.36676 1.51881,5.5763 0.4304,7.61001 -0.99421,1.85769 -1.0207,2.69144 -0.1143,3.59783 0.64888,0.64889 1.17979,2.02279 1.17979,3.05312 0,2.73263 -3.42203,1.75392 -3.82756,-1.09469 -0.38174,-2.68149 -2.80695,-3.94412 -4.43966,-2.31142 -0.62303,0.62303 -2.14122,1.13279 -3.37376,1.13279 -1.23254,0 -2.5191,0.45 -2.85902,1 -1.1085,1.79359 -3.15398,1.05485 -4.35049,-1.57121 -0.74181,-1.6281 -1.80937,-2.44194 -2.91051,-2.21879 -1.77706,0.36012 -1.86988,1.4257 -0.6568,7.54 0.92551,4.66489 -1.50667,4.24241 -4.36206,-0.75771 -1.25392,-2.19576 -2.95555,-3.99229 -3.78138,-3.99229 -1.97279,0 -3.01334,2.82542 -1.57154,4.26721 1.85229,1.8523 1.35472,4.73279 -0.81753,4.73279 -1.07267,0 -2.36696,0.74452 -2.87621,1.65449 -1.51082,2.6997 -3.66873,0.98914 -10.85455,-8.60435 -3.72836,-4.97758 -7.32381,-9.05014 -7.98987,-9.05014 -2.39728,0 -2.51457,2.25066 -0.33785,6.4829 l 2.21643,4.30945 -2.10717,2.10718 c -1.42877,1.42876 -3.13995,2.0256 -5.31503,1.85382 -5.52098,-0.43604 -4.71872,2.5659 1.66124,6.21615 5.2569,3.00769 5.55332,3.38708 5.55332,7.1077 0,3.81957 -0.0916,3.92325 -3.24939,3.67661 -2.70154,-0.21102 -3.30337,0.12554 -3.56955,1.99619 -0.51,3.58416 -4.55997,2.93085 -7.74886,-1.25 -1.46827,-1.925 -3.30529,-3.5 -4.08227,-3.5 -1.90095,0 -2.89347,2.85646 -1.48271,4.26722 1.78476,1.78476 1.32468,4.44933 -0.86722,5.02253 -1.16369,0.30431 -2,1.36401 -2,2.53425 0,1.8525 -0.55894,1.98872 -7.08219,1.72601 -5.6468,-0.22742 -7.20237,0.028 -7.67518,1.26009 -0.36215,0.94374 0.25378,2.10754 1.58219,2.98958 1.2321,0.81808 2.17518,2.4889 2.17518,3.85368 0,1.32517 0.675,2.66843 1.5,2.98501 0.825,0.31659 1.5,1.65246 1.5,2.96862 0,3.37237 -2.70526,3.07102 -6.63648,-0.73927 -2.00273,-1.94113 -3.82719,-2.90377 -4.79761,-2.53139 -1.98285,0.7609 -2.01515,3.04595 -0.0659,4.66367 0.825,0.68469 1.5,2.60096 1.5,4.25837 l 0,3.01348 -4.75,-0.75917 c -8.424,-1.34636 -9.75,-1.21332 -9.75,0.97821 0,1.62223 1.34303,2.35882 7.25259,3.97773 l 7.25259,1.98683 -0.63525,3.52228 c -0.34939,1.93725 -0.76339,3.67261 -0.92,3.85635 -0.15662,0.18374 -2.23442,0.57396 -4.61734,0.86715 -2.38293,0.29318 -4.78259,1.07073 -5.33259,1.72789 -0.55,0.65715 -1.82076,1.50307 -2.82391,1.87983 -1.03805,0.38986 -1.67986,1.44031 -1.48958,2.43803 0.24806,1.30069 1.62179,1.88873 5.32391,2.27898 3.50502,0.36946 5.80779,1.29618 7.73958,3.11467 3.76439,3.5436 3.49147,4.84354 -0.96143,4.57947 -2.89131,-0.17146 -3.79441,0.18226 -4.08697,1.60078 -0.2458,1.19179 0.34547,2.00942 1.71143,2.36663 1.14783,0.30016 2.08697,1.16827 2.08697,1.92912 0,1.02447 -1.56018,1.38337 -6.01357,1.38337 -3.30746,0 -6.79496,0.41715 -7.75,0.927 -0.95504,0.50985 -2.55719,1.18349 -3.56034,1.49698 -1.06311,0.33222 -1.68474,1.3012 -1.49028,2.323 0.26341,1.38405 1.54183,1.81614 6.07391,2.05292 3.95659,0.20672 5.74028,0.7128 5.74028,1.62868 0,1.31776 -3.66497,3.16618 -7.48852,3.77681 -2.9745,0.47504 -3.12129,3.61226 -0.22063,4.71509 1.34001,0.50947 2.70863,1.63578 3.04138,2.50292 0.33275,0.86713 1.51912,1.5766 2.63639,1.5766 2.66929,0 2.62547,2.61138 -0.0556,3.31249 -1.36535,0.35705 -1.95752,1.17538 -1.71258,2.36663 0.30735,1.49479 1.21835,1.77746 5.08697,1.57841 4.01771,-0.20671 4.71258,0.0323 4.71258,1.62117 0,1.48358 -1.02926,2.00018 -5.04699,2.53315 -5.48318,0.72737 -7.51687,2.97146 -4.61549,5.093 2.53873,1.85637 2.09152,3.81965 -0.7099,3.11654 -1.33452,-0.33495 -3.76563,0.0996 -5.55711,0.99332 -2.76245,1.37809 -3.10244,1.96343 -2.5641,4.41447 0.55636,2.53311 0.32929,2.85912 -2.19289,3.14827 -2.38779,0.27374 -2.81352,0.7765 -2.81352,3.32255 0,2.65367 0.37519,3.03618 3.25,3.31336 2.89447,0.27908 3.25,0.64989 3.25,3.38976 0,1.71406 -0.7362,3.61472 -1.66248,4.29203 -2.3183,1.69518 -0.98914,4.50485 2.1311,4.50485 2.14819,0 2.53138,0.45592 2.53138,3.01182 0,2.95163 -0.0796,2.99909 -3.98336,2.37485 -3.19997,-0.5117 -4.11108,-0.30414 -4.63278,1.0554 -0.35719,0.9308 -0.25217,2.08922 0.23336,2.57426 0.48553,0.48504 5.83278,1.70674 11.88278,2.71489 8.17166,1.3617 11,2.21043 11,3.30089 0,1.23111 -2.69737,1.47147 -16.72221,1.4901 -17.20936,0.0229 -19.72383,0.57007 -18.40553,4.00551 0.35081,0.91419 1.53556,1.89692 2.63279,2.18385 3.42812,0.89647 2.19209,2.87607 -2.75505,4.41242 -3.53891,1.09901 -4.75,1.97242 -4.75,3.42556 0,1.74675 0.60053,1.91536 5.75,1.61448 4.53379,-0.2649 5.75,-0.0264 5.75,1.12756 0,3.26079 2.75502,4.07368 7.57182,2.23413 6.38728,-2.43932 6.75533,-1.70416 2.49026,4.97428 -1.05375,1.65 -1.94879,3.78037 -1.98899,4.73416 -0.0548,1.301 -2.34923,2.4155 -9.18583,4.46201 -8.93894,2.67582 -11.24758,4.34351 -9.05214,6.53895 0.80092,0.80092 2.23233,0.76164 5.25579,-0.14421 2.77463,-0.8313 4.48788,-0.91212 5.15675,-0.24325 0.66886,0.66886 -1.38689,2.2045 -6.18764,4.62211 -5.26835,2.6531 -7.09688,4.07601 -6.84345,5.32535 0.39931,1.96846 2.85837,2.00399 7.49526,0.1083 3.74353,-1.53045 5.22338,-0.63057 3.50032,2.12849 -0.66668,1.06752 -1.21215,2.3641 -1.21215,2.88128 0,1.07745 5.63583,4.08681 7.65364,4.08681 2.36501,0 1.44607,2.86641 -1.65364,5.15812 -6.39398,4.72728 -2.26056,7.49326 4.37517,2.92776 2.46685,-1.69723 4.9666,-3.08588 5.55501,-3.08588 1.7996,0 1.19175,3.24131 -1.05669,5.63467 -2.45472,2.61293 -1.89292,5.36533 1.09513,5.36533 1.50686,0 2.03138,0.65363 2.03138,2.53138 0,3.16089 2.49735,4.23348 4.86599,2.0899 0.98532,-0.8917 2.532,-1.62128 3.43707,-1.62128 0.90507,0 2.34369,-1.35 3.19694,-3 1.74861,-3.38144 3.21374,-3.77375 4.99515,-1.33752 1.64265,2.24646 4.50485,1.01193 4.50485,-1.94304 0,-2.43309 4.68744,-6.71944 7.34822,-6.71944 2.3111,0 2.91086,6.301 1.16981,12.28997 -1.96117,6.74621 -0.97468,13.21003 2.01608,13.21003 1.62194,0 2.20836,-1.28529 3.53439,-7.74651 0.87439,-4.26058 2.19273,-8.87308 2.92963,-10.25 1.86612,-3.48687 4.00187,-3.20514 4.00187,0.52789 0,3.09051 2.33516,5.04448 4.00521,3.3514 0.47893,-0.48553 1.78034,-6.21626 2.89204,-12.73496 2.17591,-12.75906 1.99815,-12.40053 12.77098,-25.75899 4.37196,-5.4213 6.33745,-6.99612 10.92063,-8.75 7.05311,-2.69907 7.41114,-2.68011 7.41114,0.39255 0,3.10858 2.07677,4.04653 5.17186,2.33582 1.28048,-0.70775 2.9358,-1.1623 3.67849,-1.01012 0.7427,0.15217 1.08515,-0.15243 0.76101,-0.67689 -0.32414,-0.52447 0.0406,-1.47642 0.81062,-2.11544 0.87151,-0.72329 1.62633,-0.7956 1.99964,-0.19157 0.32983,0.53367 -2.89261,4.00626 -7.16097,7.71687 -4.26836,3.71062 -7.89807,7.30388 -8.06602,7.98502 -0.50073,2.03077 1.82586,2.75192 4.41236,1.36767 2.08721,-1.11704 2.59201,-1.05285 3.70655,0.47138 0.70965,0.97049 1.94191,1.67102 2.73836,1.55673 2.86709,-0.41145 3.60561,0.0657 3.5275,2.27915 -0.0699,1.98188 0.42452,2.2574 4.14933,2.31207 2.32581,0.0341 4.45542,0.28875 4.73248,0.56581 0.74451,0.74451 -1.55074,13.16843 -2.69901,14.60939 -1.27994,1.60619 -0.24587,4.26273 1.65929,4.26273 0.81635,0 2.93078,-1.8 4.69875,-4 3.6057,-4.48681 7.53554,-5.58296 6.27398,-1.75 -1.37927,4.19058 -1.01855,6.25 1.09471,6.25 1.63099,0 2.73077,-2.06965 6.11094,-11.5 4.91373,-13.70884 8.8919,-18.72285 22.20379,-27.98518 8.25335,-5.74263 11.19634,-7.08808 11.19634,-5.11865 0,1.13191 -8.75885,19.50079 -13.40078,28.10383 -4.63387,8.58813 -11.95134,27.62124 -11.13011,28.95001 1.46782,2.37498 3.7445,0.80269 5.71963,-3.95001 2.4893,-5.9899 4.56565,-6.5089 5.00089,-1.25 0.25964,3.13702 0.71902,3.80653 2.81037,4.09582 1.375,0.1902 3.05677,0.80304 3.73727,1.36187 2.0624,1.69368 4.26273,0.0846 4.26273,-3.11729 0,-3.63068 1.26755,-4.56477 3.93436,-2.89932 4.01764,2.50906 4.49119,-0.0952 2.06468,-11.35444 -2.62173,-12.16509 -2.25835,-23.3958 1.04244,-32.21795 2.70364,-7.22614 3.69095,-7.95022 8.5599,-6.2777 3.56857,1.22582 4.18335,2.00884 7.26183,9.2491 1.84977,4.35045 6.91912,15.85927 11.26523,25.57516 4.3461,9.71589 11.54447,28.39089 15.99636,41.5 l 8.09435,23.83475 -0.13791,20.5 c -0.0759,11.275 -0.36583,21.85 -0.64439,23.5 -0.27855,1.65 -1.46629,15.6 -2.6394,31 -2.8613,37.56157 -2.77084,96.12388 0.20981,135.82827 1.10772,14.75555 1.77739,27.21115 1.48818,27.67911 -0.28922,0.46797 0.19243,12.92025 1.07033,27.67174 1.14951,19.31538 1.56451,42.07205 1.483,81.32088 -0.10666,51.35536 -0.006,54.69749 1.74629,57.92273 3.60065,6.62772 11.61073,8.66231 17.89424,4.5452 z m -5.67399,-347.65891 c -0.0212,-2.3462 1.64051,-3.14833 2.40344,-1.16015 0.34558,0.90056 0.39273,1.87298 0.10479,2.16092 -0.28795,0.28795 -0.53043,-0.11396 -0.53885,-0.89312 -0.0126,-1.16647 -0.18652,-1.15175 -0.98469,0.0833 -0.8354,1.29269 -0.97149,1.26629 -0.98469,-0.19098 z m 219.66794,-23.05902 c -4.83338,-7.97966 -8.68325,-15.04191 -8.68325,-15.92866 0,-0.59957 0.73654,-0.72572 1.75,-0.29973 0.9625,0.40457 2.7669,0.95602 4.00978,1.22543 4.18076,0.90626 10.79255,10.91618 9.8062,14.8461 -0.80153,3.19354 -4.98561,3.28889 -6.88273,0.15686 z m 4.31675,-1.83652 c 0,-1.38334 -6.19126,-10.05555 -6.76748,-9.47933 -0.63308,0.63308 4.93823,10.56585 5.92641,10.56585 0.46259,0 0.84107,-0.48894 0.84107,-1.08652 z m -223,-26.78419 c 0,-19.46636 1.74258,-46.90993 3.46962,-54.64257 0.24731,-1.1073 5.42021,-7.6323 11.49533,-14.5 10.02246,-11.33002 11.70568,-12.78778 18.17047,-15.73672 3.91863,-1.7875 7.70886,-3.25 8.42273,-3.25 0.81585,0 1.54164,1.95054 1.95407,5.25154 0.59752,4.78236 0.0721,6.87816 -5.881,23.45869 -3.59543,10.01394 -7.17854,19.46325 -7.96247,20.99846 -0.78393,1.53522 -4.90225,13.20633 -9.15181,25.93579 -7.24467,21.70127 -8.04457,23.5252 -12.8278,29.25 -2.80574,3.35804 -5.68359,6.10552 -6.39524,6.10552 -1.02082,0 -1.2939,-4.82694 -1.2939,-22.87071 z m 17.35086,-11.83374 c 3.76797,-11.43755 7.74061,-22.82055 8.8281,-25.29555 1.08748,-2.475 4.86709,-12.43208 8.39914,-22.12685 5.81488,-15.96069 7.53617,-23.42555 5.80158,-25.16014 -0.34118,-0.34118 -3.35697,0.76113 -6.70175,2.44957 -5.98188,3.01964 -7.48114,4.44266 -21.02566,19.95654 l -6.65194,7.61912 -1.42275,14.38088 c -0.78251,7.90948 -1.6734,24.28088 -1.97976,36.38088 l -0.55702,22 4.2296,-4.70445 c 3.78854,-4.21387 4.944,-6.87298 11.08046,-25.5 z m 154.29382,20.45445 c -0.34931,-2.8875 -0.91473,-6.4875 -1.25648,-8 -0.47077,-2.08356 -0.24609,-2.75 0.92713,-2.75 1.93214,0 5.68467,5.13527 5.68467,7.77937 0,4.67102 -1.28894,8.22063 -2.9851,8.22063 -1.34581,0 -1.87759,-1.17787 -2.37022,-5.25 z m -7.14468,-53.91432 c -6.67255,-2.24831 -8.5,-3.42177 -8.5,-5.45812 0,-0.97947 1.39237,-1.37756 4.81822,-1.37756 3.89078,0 5.62314,0.61864 9,3.214 7.38571,5.67645 5.19915,7.16549 -5.31822,3.62168 z M 457.77479,379.58913 c -0.38763,-9.87691 -1.12035,-22.45802 -1.62828,-27.95802 -0.50792,-5.5 -0.93954,-15.2875 -0.95917,-21.75 -0.0407,-13.40556 -0.70797,-12.6948 9.50881,-10.12843 5.42207,1.36198 6.4529,1.96231 6.43914,3.75 -0.009,1.17064 -1.84061,15.17843 -4.07024,31.12843 -2.22962,15.95 -4.41609,31.83134 -4.85883,35.29187 -0.79344,6.20179 -1.98774,9.36331 -2.12484,5.6248 -0.0681,-1.85719 -0.094,-1.8559 -0.83605,0.0413 -0.4316,1.10358 -1.07332,-5.87849 -1.47054,-16 z m 6.42954,-22.4764 c 1.75041,-12.91489 3.40303,-25.75566 3.67248,-28.53505 l 0.48992,-5.05343 -5.25725,-1.21352 c -2.89148,-0.66744 -5.42928,-1.04148 -5.63955,-0.83122 -0.21026,0.21027 0.12397,8.4304 0.74275,18.26695 0.61877,9.83656 1.35637,23.19896 1.6391,29.69423 0.28274,6.49527 0.66165,11.662 0.84202,11.48162 0.18038,-0.18038 1.76012,-10.89469 3.51053,-23.80958 z m 107.94734,36.66189 c 0,-1.7769 11.02712,-9.77853 15.71026,-11.39988 3.36289,-1.16426 3.96446,-1.0629 7.47351,1.25928 2.09893,1.38901 3.81623,3.13632 3.81623,3.88292 0,0.89034 -4.06854,2.43397 -11.82324,4.48581 -13.2165,3.49701 -15.17676,3.72587 -15.17676,1.77187 z m 13.84609,-4.21197 c 9.14238,-2.53621 8.72163,-2.29239 6.97312,-4.0409 -1.38116,-1.38116 -1.90858,-1.38014 -5.23598,0.0101 -3.63625,1.51932 -9.55438,5.59922 -8.122,5.59922 0.40203,0 3.27521,-0.70581 6.38486,-1.56846 z M 392.23062,374.54778 c 0.048,-1.16495 0.28494,-1.4019 0.60416,-0.60417 0.28887,0.72187 0.25335,1.58438 -0.0789,1.91667 -0.33229,0.33229 -0.56864,-0.25834 -0.52522,-1.3125 z m 2,0 c 0.048,-1.16495 0.28494,-1.4019 0.60416,-0.60417 0.28887,0.72187 0.25335,1.58438 -0.0789,1.91667 -0.33229,0.33229 -0.56864,-0.25834 -0.52522,-1.3125 z m 83.92105,-4.15693 c 0,-1.03779 0.68107,-7.03329 1.51348,-13.32332 0.83242,-6.29003 1.97122,-15.45694 2.53067,-20.37091 0.55945,-4.91396 1.51691,-9.53662 2.1277,-10.27257 1.1369,-1.36989 3.48034,-1.0765 7.60221,0.95177 2.67421,1.3159 15.22594,16.44672 15.22594,18.3545 0,1.26449 -8.52084,8.40079 -10.03065,8.40079 -0.40868,0 -4.24565,3.9375 -8.5266,8.75 -8.04317,9.04184 -10.44275,10.76746 -10.44275,7.50974 z M 498.74858,349.523 c 2.9717,-1.9725 5.40309,-3.71025 5.40309,-3.86167 0,-0.15141 -2.26392,-3.10743 -5.03093,-6.56892 -4.60149,-5.75638 -10.32572,-10.9613 -12.05494,-10.9613 -1.07541,0 -1.68818,3.34434 -3.38971,18.5 -0.86448,7.7 -1.81546,15.35 -2.11328,17 -0.49357,2.73439 0.004,2.40142 5.62059,-3.76087 3.38915,-3.71848 8.59349,-8.37474 11.56518,-10.34724 z m -252.0542,10.67721 c -0.66498,-1.07595 1.29228,-2.56745 2.19049,-1.66924 0.33007,0.33008 -0.0374,0.60703 -0.81653,0.61545 -1.16647,0.0126 -1.15175,0.18652 0.0833,0.98469 0.90129,0.58246 1.02463,0.97549 0.30902,0.98469 -0.65504,0.008 -1.44988,-0.4036 -1.76631,-0.91559 z m 372.45729,-0.38496 c 0,-1.97308 7.64225,-5.93246 10.00387,-5.18291 3.6929,1.17208 2.35246,3.98866 -2.51822,5.29137 -5.78634,1.5476 -7.48565,1.52298 -7.48565,-0.10846 z m -269,-6.30333 c 0,-1.36983 6.99611,-12.02145 9.172,-13.96444 6.05368,-5.40571 16.44474,-8.46355 18.33995,-5.39703 1.19652,1.93601 -6.34333,10.77042 -10.29922,12.06756 -2.042,0.66958 -5.95672,2.72394 -8.69938,4.56525 -4.52553,3.03827 -8.51335,4.31643 -8.51335,2.72866 z m 14.22777,-9.07888 c 4.56996,-1.79126 11.00418,-8.39128 8.87302,-9.10167 -2.73149,-0.91049 -12.82148,6.19892 -15.51751,10.93363 -1.88896,3.31736 -1.88896,3.34189 0,1.69363 1.0542,-0.91986 4.04422,-2.50638 6.64449,-3.52559 z m 193.77223,6.19807 c 0,-0.825 0.675,-1.5 1.5,-1.5 0.825,0 1.5,0.675 1.5,1.5 0,0.825 -0.675,1.5 -1.5,1.5 -0.825,0 -1.5,-0.675 -1.5,-1.5 z m -172,-14 c 0,-0.83333 0.88889,-1.5 2,-1.5 1.11111,0 2,0.66667 2,1.5 0,0.83333 -0.88889,1.5 -2,1.5 -1.11111,0 -2,-0.66667 -2,-1.5 z m 134.51006,-5.25 c -0.38871,-1.5125 -2.00329,-10.85 -3.58795,-20.75 -1.58465,-9.9 -3.83678,-23.02841 -5.00473,-29.17424 l -2.12354,-11.17424 2.85308,-3.57573 c 1.56919,-1.96665 3.39824,-3.57574 4.06454,-3.57576 0.6663,-2e-5 1.70411,1.91247 2.30625,4.24997 0.60213,2.3375 1.49356,5.6 1.98095,7.25 1.68887,5.71751 6.02888,35.63891 6.65602,45.88875 0.61373,10.03064 0.56863,10.34143 -1.73479,11.95481 -3.32555,2.32931 -4.59616,2.07246 -5.40983,-1.09356 z m 4.48642,-9.55902 c -0.004,-8.19727 -5.81028,-45.44083 -7.97082,-51.12348 -1.01381,-2.66654 -1.24316,-2.77857 -2.70192,-1.31981 -1.45875,1.45875 -1.40677,2.59817 0.61241,13.42319 1.21356,6.50601 3.27435,18.57912 4.57955,26.82912 1.30519,8.25 2.64584,16.47501 2.97921,18.27779 1.07551,5.81596 2.50519,2.33727 2.50157,-6.08681 z M 399.499,325.59386 c -0.88897,-2.31663 2.61066,-5.60858 5.59194,-5.26008 5.21296,0.60936 2.76812,6.68901 -2.72065,6.76553 -1.25477,0.0175 -2.54684,-0.65996 -2.87129,-1.50545 z m 26.77453,0.25911 c -1.74894,-1.74894 -1.38929,-4.92132 0.51528,-4.54518 2.18632,0.43178 3.69422,4.48219 1.92184,5.16231 -0.7234,0.2776 -1.8201,-1.1e-4 -2.43712,-0.61713 z m -107.93727,-4.74879 c -5.80385,-0.84136 -7.92804,-1.91491 -4.10126,-2.07275 l 2.41667,-0.0997 -2.5,-0.88608 c -1.78972,-0.63433 -0.93738,-0.75054 3,-0.40901 3.025,0.26239 6.9625,0.48098 8.75,0.48576 2.21836,0.006 3.25,0.48483 3.25,1.50869 0,0.825 -0.6382,1.5 -1.41821,1.5 -0.78002,0 -2.01752,0.16731 -2.75,0.37181 -0.73249,0.2045 -3.72372,0.0251 -6.6472,-0.39874 z m 175.97992,-15.4949 c -3.51199,-5.87166 -3.79341,-8.97817 -0.81332,-8.97817 1.25645,0 2.5618,1.71096 4.19615,5.5 4.40374,10.20956 2.07533,12.6036 -3.38283,3.47817 z m -217.35133,3.1646 c -3.84002,-1.19521 -9.81318,-6.16964 -9.81318,-8.17239 0,-1.4661 6.68116,-5.12255 7.6287,-4.17502 0.3892,0.38921 0.12889,1.78907 -0.57848,3.11079 -1.36152,2.54403 -0.76861,4.59385 1.32878,4.59385 0.69352,0 3.08058,-2.025 5.30457,-4.5 4.41779,-4.9164 6.12484,-5.33245 13.87361,-3.38129 2.52343,0.63541 4.44282,1.70467 4.44282,2.47503 0,0.74597 -2.8125,3.60231 -6.25,6.34742 -6.68736,5.34039 -8.96901,5.87034 -15.93682,3.70161 z m 13.51981,-5.57383 c 5.15142,-3.76129 4.79488,-5.09037 -1.33299,-4.96898 -2.78591,0.0552 -4.18527,0.86653 -6.85876,3.97668 l -3.35875,3.90735 2.35875,0.89354 c 2.62288,0.99361 2.60403,1.00142 9.19175,-3.80859 z m 21.22278,5.0213 c -0.87946,-1.423 0.50101,-4.09024 2.11696,-4.09024 2.37511,0 5.32727,1.95906 5.32727,3.53518 0,1.64414 -6.47286,2.12677 -7.44423,0.55506 z m 460.43058,-3.34024 c -0.008,-1.2375 -0.285,-3.2625 -0.61664,-4.5 -0.50153,-1.87148 -0.20483,-2.2477 1.76366,-2.23635 3.52721,0.0204 6.86663,1.08959 6.86663,2.19861 0,0.53845 -0.93064,2.28597 -2.06809,3.88337 -2.52507,3.54613 -5.92574,3.92041 -5.94556,0.65437 z m -444.47973,-2.06343 c -3.29636,-1.75261 -6.12659,-3.89479 -6.2894,-4.76039 -0.20684,-1.0997 2.05057,-2.66519 7.49339,-5.19658 10.68741,-4.9706 13.28939,-5.53782 13.28939,-2.89703 0,1.12717 -0.5066,2.36249 -1.12579,2.74517 -0.71864,0.44415 -0.93245,2.569 -0.5912,5.87543 0.44935,4.35376 0.2324,5.36837 -1.36064,6.36324 -2.8153,1.75818 -4.79926,1.38804 -11.41575,-2.12984 z m 9.96139,-4.6941 c 0.0176,-2.47086 0.39521,-5.05361 0.83914,-5.73945 0.62165,-0.9604 0.22731,-1.02652 -1.71594,-0.2877 -4.59673,1.74768 -10.59121,5.06322 -10.59121,5.85799 0,1.11107 8.20486,5.11929 9.96801,4.86955 1.03631,-0.14678 1.47742,-1.52906 1.5,-4.70039 z m -81.21801,6.3018 c -1.2375,-0.23836 -2.25,-1.10559 -2.25,-1.92718 0,-2.24063 6.38,-1.41409 6.81513,0.88291 0.33163,1.75059 -0.23045,1.87916 -4.56513,1.04427 z m 290.78544,-1.10329 c -0.0195,-0.71996 -0.4674,-1.04205 -0.99536,-0.71575 -0.5689,0.3516 -0.52905,-0.64274 0.0978,-2.44098 1.02906,-2.95197 3.89767,-4.28951 3.82665,-1.78425 -0.0498,1.75578 -2.88584,6.53979 -2.92912,4.94098 z m -13.38602,-8.89431 c -1.18177,-7.15127 -0.64746,-12.28052 1.95692,-18.78615 2.79815,-6.98965 4.39243,-8.0034 6.23314,-3.96347 1.75734,3.85694 1.34915,8.1062 -1.67604,17.44768 -3.12847,9.6604 -5.47778,11.57256 -6.51402,5.30194 z m 5.80088,-12.41406 c 0.81485,-3.49292 1.1113,-6.72101 0.6588,-7.17351 -1.38244,-1.38244 -5.3243,10.5853 -4.52953,13.75193 0.90796,3.61757 1.87596,1.97242 3.87073,-6.57842 z m -191.26214,10.37887 c 0.50201,-2.60673 3.81184,-2.89745 3.81184,-0.3348 0,1.43109 -0.64223,2.07332 -2.07332,2.07332 -1.4311,0 -1.96962,-0.53852 -1.73852,-1.73852 z m -40.99116,-3.34799 c -5.11728,-3.76329 -5.43228,-6.35996 -0.947,-7.80665 5.00868,-1.61551 11.74347,-2.46234 11.8074,-1.48465 0.0316,0.4828 0.24746,2.69867 0.47975,4.92417 0.3765,3.60719 0.10932,4.23126 -2.4617,5.75 -3.79605,2.24238 -3.98993,2.21218 -8.87845,-1.38287 z m 7.09627,-1.16349 c 1.10385,-0.82351 1.47046,-2.01768 1.07449,-3.5 -0.66608,-2.49353 -1.92059,-2.75071 -5.94823,-1.2194 l -2.71067,1.03059 2.31988,2.46941 c 2.66707,2.83896 2.99257,2.91436 5.26453,1.2194 z m 149.26392,-2.6903 c -2.87464,-3.00048 -2.956,-6.0597 -0.16115,-6.0597 1.89019,0 5.60396,4.7283 5.60396,7.13486 0,2.72264 -2.22546,2.28302 -5.44281,-1.07516 z m 63.45139,-19.53713 c -0.55205,-1.45199 -1.27266,-4.32182 -1.60135,-6.37739 -0.53697,-3.35797 -0.32281,-3.86261 2.10949,-4.97084 5.04539,-2.29884 6.87141,2.06276 4.08831,9.76529 -1.57687,4.36417 -3.31186,4.96167 -4.59645,1.58294 z m 3.38768,-6.11281 c 0.73315,-1.91057 -0.16611,-3.67003 -1.46536,-2.86705 -1.18975,0.73531 -1.22139,4.45729 -0.0379,4.45729 0.49116,0 1.16762,-0.71561 1.50325,-1.59024 z m -234.82866,2.69962 c -0.67053,-1.08495 3.26552,-3.77841 6.82824,-4.67259 2.28192,-0.57273 2.60416,-0.34631 2.60416,1.8298 0,1.98142 -0.63168,2.60975 -3.125,3.10841 -4.23432,0.84686 -5.65687,0.78696 -6.3074,-0.26562 z m 15.4324,-4.10938 c 0,-1.33333 0.66667,-2 2,-2 2.37321,0 2.68424,2.52345 0.41821,3.39301 -2.29439,0.88044 -2.41821,0.80912 -2.41821,-1.39301 z m 196,-11.43261 c 0,-3.64117 0.37939,-4.55303 2.12485,-5.10701 3.84425,-1.22012 5.4159,4.83528 2.04641,7.88463 -3.04564,2.75627 -4.17126,2.00673 -4.17126,-2.77762 z m 2.68311,-1.75489 c -0.31922,-0.79773 -0.55618,-0.56078 -0.60416,0.60417 -0.0434,1.05416 0.19293,1.64479 0.52522,1.3125 0.33229,-0.3323 0.36781,-1.1948 0.0789,-1.91667 z m -181.43311,-3.92755 c -4.3417,-2.78049 -4.25078,-4.88495 0.21104,-4.88495 3.53433,0 7.53896,3.02171 7.53896,5.68856 0,1.97053 -4.0786,1.54762 -7.75,-0.80361 z m -11.58333,-81.55162 c -1.21793,-1.21793 -0.68908,-3.33333 0.83333,-3.33333 0.83333,0 1.5,0.88889 1.5,2 0,1.99224 -1.06554,2.60112 -2.33333,1.33333 z m 172.33333,-16.83333 c 0,-0.825 0.675,-1.5 1.5,-1.5 0.825,0 1.5,0.675 1.5,1.5 0,0.825 -0.675,1.5 -1.5,1.5 -0.825,0 -1.5,-0.675 -1.5,-1.5 z m -78.04182,-17.57815 c -1.33012,-2.48534 -0.59981,-4.92185 1.47525,-4.92185 1.84306,0 3.91715,3.64401 3.17496,5.57814 -0.80299,2.09256 -3.3732,1.72983 -4.65021,-0.65629 z m -73.83062,220.32815 c 1.24387,-1.58606 1.2085,-1.62143 -0.37756,-0.37756 -1.66575,1.30637 -2.19548,2.12756 -1.37244,2.12756 0.20765,0 0.99515,-0.7875 1.75,-1.75 z"
     id="path3081"
     inkscape:connector-curvature="0" />
</svg>
